<svg width="27" height="26" viewBox="0 0 27 26" fill="none" xmlns="http://www.w3.org/2000/svg">
<path d="M14.6842 4.08281H7.79625V2.4375C7.79657 2.32985 7.83948 2.22671 7.91559 2.15059C7.99171 2.07448 8.09485 2.03157 8.2025 2.03125H14.278C14.3856 2.03157 14.4888 2.07448 14.5649 2.15059C14.641 2.22671 14.6839 2.32985 14.6842 2.4375V4.08281ZM11.9136 5.93531L17.0953 9.36609V5.30359C17.095 5.19595 17.0521 5.0928 16.976 5.01669C16.8999 4.94057 16.7967 4.89767 16.6891 4.89734H5.78938C5.68173 4.89767 5.57859 4.94057 5.50247 5.01669C5.42635 5.0928 5.38345 5.19595 5.38313 5.30359V9.36812L10.5648 5.93734C10.765 5.80554 10.9993 5.73512 11.2389 5.73476C11.4786 5.7344 11.7131 5.80411 11.9136 5.93531ZM3.99984 23.1562H2.9375C2.82976 23.1562 2.72642 23.1991 2.65024 23.2752C2.57405 23.3514 2.53125 23.4548 2.53125 23.5625C2.53125 23.6702 2.57405 23.7736 2.65024 23.8498C2.72642 23.9259 2.82976 23.9688 2.9375 23.9688H3.99984C4.10759 23.9688 4.21092 23.9259 4.28711 23.8498C4.36329 23.7736 4.40609 23.6702 4.40609 23.5625C4.40609 23.4548 4.36329 23.3514 4.28711 23.2752C4.21092 23.1991 4.10759 23.1562 3.99984 23.1562ZM3.46969 14.5925L11.0503 10.597L11.0625 10.593C11.0826 10.5828 11.1037 10.5746 11.1255 10.5686L11.1478 10.5605C11.208 10.5469 11.2704 10.5469 11.3306 10.5605L11.353 10.5686C11.3747 10.5746 11.3958 10.5828 11.4159 10.593L11.4281 10.597L16.8962 13.4794C16.4276 13.0371 16.1362 12.4392 16.0768 11.7975C16.0173 11.1559 16.1938 10.5146 16.5733 9.99375L11.4647 6.61375C11.3976 6.57001 11.3193 6.54673 11.2392 6.54673C11.1592 6.54673 11.0808 6.57001 11.0138 6.61375L2.71406 12.1083C2.63335 12.1618 2.57431 12.2422 2.54752 12.3353C2.52072 12.4283 2.52791 12.5279 2.56781 12.6161L3.46969 14.5925ZM12.1736 18.7809C12.1736 18.4577 12.302 18.1477 12.5306 17.9192C12.7591 17.6906 13.0691 17.5622 13.3923 17.5622C13.7156 17.5622 14.0256 17.6906 14.2541 17.9192C14.4827 18.1477 14.6111 18.4577 14.6111 18.7809C14.6209 19.2827 14.7432 19.7758 14.9689 20.224C15.1946 20.6722 15.518 21.0641 15.9152 21.3708L17.5097 17.877V17.68H16.4575C16.1343 17.68 15.8243 17.5516 15.5957 17.323C15.3672 17.0945 15.2387 16.7845 15.2387 16.4613C15.2387 16.138 15.3672 15.828 15.5957 15.5995C15.8243 15.3709 16.1343 15.2425 16.4575 15.2425H17.5097V14.7225L11.6455 11.6309V17.7572C11.6455 17.8649 11.6027 17.9683 11.5265 18.0444C11.4503 18.1206 11.347 18.1634 11.2392 18.1634C11.1315 18.1634 11.0281 18.1206 10.952 18.0444C10.8758 17.9683 10.833 17.8649 10.833 17.7572V11.6309L3.80891 15.3339L7.37781 23.1562H6.09406C5.98632 23.1562 5.88299 23.1991 5.8068 23.2752C5.73061 23.3514 5.68781 23.4548 5.68781 23.5625C5.68781 23.6702 5.73061 23.7736 5.8068 23.8498C5.88299 23.9259 5.98632 23.9688 6.09406 23.9688H14.4689C14.5032 23.9683 14.5373 23.9635 14.5705 23.9545L14.5948 23.9464C14.6226 23.9382 14.6492 23.9266 14.6741 23.9119C14.679 23.9084 14.6845 23.9056 14.6903 23.9037C14.7186 23.8853 14.7439 23.8627 14.7655 23.8367C14.7714 23.8311 14.7768 23.825 14.7817 23.8184C14.8017 23.7941 14.8187 23.7675 14.8325 23.7392C14.835 23.7369 14.8371 23.7342 14.8386 23.7311L14.8813 23.6356C13.24 22.5448 12.1736 20.7756 12.1736 18.7809ZM24.4688 18.7813C24.4688 21.6418 21.8931 23.9688 18.7274 23.9688C15.5615 23.9688 12.9859 21.6418 12.9859 18.7813C12.9859 18.6736 13.0287 18.5703 13.1049 18.4941C13.1811 18.4179 13.2844 18.3751 13.3921 18.3751C13.4999 18.3751 13.6032 18.4179 13.6794 18.4941C13.7556 18.5703 13.7984 18.6736 13.7984 18.7813C13.7984 21.0722 15.7929 22.9562 18.3212 23.1402V16.8671H16.4567C16.3489 16.8671 16.2456 16.8243 16.1694 16.7481C16.0932 16.6719 16.0504 16.5686 16.0504 16.4608C16.0504 16.3531 16.0932 16.2498 16.1694 16.1736C16.2456 16.0974 16.3489 16.0546 16.4567 16.0546H18.3212V13.3599C17.877 13.26 17.4853 12.9997 17.221 12.629C16.9567 12.2583 16.8384 11.8031 16.8887 11.3507C16.939 10.8982 17.1544 10.4801 17.4936 10.1765C17.8328 9.87284 18.2721 9.70497 18.7274 9.70497C19.1827 9.70497 19.622 9.87284 19.9612 10.1765C20.3005 10.4801 20.5159 10.8982 20.5662 11.3507C20.6165 11.8031 20.4981 12.2583 20.2338 12.629C19.9695 12.9997 19.5778 13.26 19.1337 13.3599V16.0546H20.998C21.1057 16.0546 21.209 16.0974 21.2852 16.1736C21.3614 16.2498 21.4042 16.3531 21.4042 16.4608C21.4042 16.5686 21.3614 16.6719 21.2852 16.7481C21.209 16.8243 21.1057 16.8671 20.998 16.8671H19.1337V23.1402C21.662 22.956 23.6562 21.0722 23.6562 18.7813C23.6562 18.6736 23.6991 18.5703 23.7752 18.4941C23.8514 18.4179 23.9548 18.3751 24.0625 18.3751C24.1702 18.3751 24.2736 18.4179 24.3498 18.4941C24.4259 18.5703 24.4688 18.6736 24.4688 18.7813ZM18.7274 12.5938C18.9326 12.5938 19.1332 12.5329 19.3039 12.4189C19.4745 12.3049 19.6075 12.1428 19.686 11.9532C19.7645 11.7637 19.7851 11.555 19.745 11.3538C19.705 11.1525 19.6062 10.9676 19.4611 10.8225C19.316 10.6774 19.1311 10.5786 18.9298 10.5386C18.7286 10.4985 18.52 10.5191 18.3304 10.5976C18.1408 10.6761 17.9787 10.8091 17.8647 10.9797C17.7507 11.1504 17.6899 11.351 17.6899 11.5562C17.6902 11.8313 17.7996 12.095 17.9941 12.2895C18.1886 12.484 18.4523 12.5934 18.7274 12.5938Z" fill="#ADB5BD"/>
</svg>
